<svg xmlns="http://www.w3.org/2000/svg" width="420" height="325" viewBox="0 0 420 325"><style>.st0{fill:#3e253c}</style><g id="APP_DESIGN"><path class="st0" d="M124 142H39v8h85v-8zm-33 6H72v-4h19v4zM47 217h69v33H47zM370 149.5c2.8 0 5-2.2 5-5s-2.2-5-5-5-5 2.2-5 5 2.2 5 5 5zM156 175h84v49h-84zM124 127c0-1.1-.9-2-2-2H41c-1.1 0-2 .9-2 2v11h85v-11zm-42.5 6c-1.1 0-2-.9-2-2s.9-2 2-2 2 .9 2 2-.9 2-2 2zM255 175h84v49h-84zM85 263c0-1.6-1.3-3-3-3s-3 1.3-3 3 1.3 3 3 3 3-1.3 3-3z"/><path class="st0" d="M124 250v-96H39v96h4v-37h77v37h4zm-81-42v-49h77v49H43z"/><path class="st0" d="M80 304v-32h42c1.1 0 2-.9 2-2v-16H39v16c0 1.1.9 2 2 2h32v4H41c-3.3 0-6-2.7-6-6V127c0-3.3 2.7-6 6-6h71V55c0-3.3 2.8-6 6.2-6H208V0H0v325h208v-21H80zm-5-41c0-3.9 3.1-7 7-7s7 3.1 7 7-3.1 7-7 7-7-3.1-7-7z"/><path class="st0" d="M47 163h69v29H47zM47 196h69v8H47zM156 147h84v11h-84zM156 99h84v44h-84zM255 99h84v44h-84z"/><path class="st0" d="M152 171h92v53h7v-53h92v53h12V83H140v141h12v-53zm99-76h92v67h-92V95zm-99 0h92v67h-92V95z"/><path class="st0" d="M212 0v53h-93.8c-1.2 0-2.2 1-2.2 2v66h6c3.3 0 6 2.7 6 6v109h251c1.1 0 2-.9 2-2V55c0-1.1-.9-2-2-2H219v-4h160c3.3 0 6 2.7 6 6v179c0 3.3-2.7 6-6 6H128v30c0 3.3-2.7 6-6 6H84v24h128v25h208V0H212zm158 135.5c5 0 9 4 9 9s-4 9-9 9-9-4-9-9 4-9 9-9zM359 61v167H136V61h223z"/><path class="st0" d="M255 147h84v11h-84zM355 65H140v14h215V65zm-94 9h-26v-4h26v4z"/></g></svg>