<svg xmlns="http://www.w3.org/2000/svg" width="420" height="325" viewBox="0 0 420 325"><style>.st0{fill:#3e253c}</style><g id="WEB_DESIGN"><path class="st0" d="M116 96h232V71H116v25zm162-20h55v14h-55V76zm-145 5h23v4h-23v-4zM136 161h21v23h-21zM161 142h168v-23H161v23zm154-18c3.3 0 6 2.7 6 6s-2.7 6-6 6-6-2.7-6-6 2.7-6 6-6zm-90 4h16v4h-16v-4zm-46 0h38v4h-38v-4z"/><circle class="st0" cx="315" cy="172" r="2"/><path class="st0" d="M348 59H72v8h276v-8zM77 65c-1.1 0-2-.9-2-2s.9-2 2-2 2 .9 2 2-.9 2-2 2zm8 0c-1.1 0-2-.9-2-2s.9-2 2-2 2 .9 2 2-.9 2-2 2zm8 0c-1.1 0-2-.9-2-2s.9-2 2-2 2 .9 2 2-.9 2-2 2zM161 184h168v-23H161v23zm154-18c3.3 0 6 2.7 6 6s-2.7 6-6 6-6-2.7-6-6 2.7-6 6-6zm-90 4h16v4h-16v-4zm-46 0h38v4h-38v-4zM282 80h47v6h-47z"/><path class="st0" d="M116 203h232V100H116v103zm16-88h201v31H132v-31zm0 42h201v31H132v-31z"/><path class="st0" d="M255 285v-39h-90v39h37v4h-62v-4h21v-39H57c-3.3 0-6-2.7-6-6V43c0-3.3 2.7-6 6-6h151V0H0v325h208v-40h47z"/><path class="st0" d="M112 71H72v132h40V71zm-9 97H81v-4h22v4zm0-15H81v-4h22v4zm0-15H81v-4h22v4zm0-15H81v-4h22v4zm-11-21c-6.6 0-12-5.4-12-12s5.4-12 12-12 12 5.4 12 12-5.4 12-12 12z"/><circle class="st0" cx="315" cy="130" r="2"/><path class="st0" d="M92 82c-4.4 0-8 3.6-8 8s3.6 8 8 8 8-3.6 8-8-3.6-8-8-8z"/><path class="st0" d="M212 0v41H57c-1.1 0-2 .9-2 2v197c0 1.1.9 2 2 2h306c1.1 0 2-.9 2-2V43c0-1.1-.9-2-2-2H221v-4h142c3.3 0 6 2.7 6 6v197c0 3.3-2.7 6-6 6H259v39h21v4h-68v36h208V0H212zm140 55v152H68V55h284z"/><path class="st0" d="M136 119h21v23h-21z"/></g></svg>