<svg id="Layer_1" xmlns="http://www.w3.org/2000/svg" width="56" height="50" viewBox="0 0 56 50"><path fill="#fc3031" d="M20 17h16v13H20zM20 38h16v-6H20v6zm8-5c1.1 0 2 .9 2 2s-.9 2-2 2-2-.9-2-2 .9-2 2-2z"/><path fill="#fc3031" d="M28 2C15.3 2 5 12.3 5 25s10.3 23 23 23 23-10.3 23-23S40.7 2 28 2zm10 36c0 1.1-.9 2-2 2H20c-1.1 0-2-.9-2-2V12c0-1.1.9-2 2-2h16c1.1 0 2 .9 2 2v26z"/><path fill="#FFF" d="M20 12h16v3H20z"/><path fill="#fc3031" d="M0 0v50h56V0H0zm28 50C14.2 50 3 38.8 3 25S14.2 0 28 0s25 11.2 25 25-11.2 25-25 25z"/></svg>